name D:\school\WTK\thesis\model\3dpredictsim\Results\MidTarsalJoint\Fal_s1_bCst_PF_Natali2010_ls148_MT_nl_fitted_Tmtp_ig24_kmtp1.mot
datacolumns 128
datarows 4
range 0.56320005 0.59699206
endheader
time	pelvis_tilt	pelvis_list	pelvis_rotation	pelvis_tx	pelvis_ty	pelvis_tz	hip_flexion_l	hip_adduction_l	hip_rotation_l	hip_flexion_r	hip_adduction_r	hip_rotation_r	knee_angle_l	knee_angle_r	ankle_angle_l	ankle_angle_r	subtalar_angle_l	subtalar_angle_r	tmt_angle_l	tmt_angle_r	mtp_angle_l	mtp_angle_r	lumbar_extension	lumbar_bending	lumbar_rotation	arm_flex_l	arm_add_l	arm_rot_l	arm_flex_r	arm_add_r	arm_rot_r	elbow_flex_l	elbow_flex_r	pro_sup_l	pro_sup_r	glut_med1_l/activation	glut_med2_l/activation	glut_med3_l/activation	glut_min1_l/activation	glut_min2_l/activation	glut_min3_l/activation	semimem_l/activation	semiten_l/activation	bifemlh_l/activation	bifemsh_l/activation	sar_l/activation	add_long_l/activation	add_brev_l/activation	add_mag1_l/activation	add_mag2_l/activation	add_mag3_l/activation	tfl_l/activation	pect_l/activation	grac_l/activation	glut_max1_l/activation	glut_max2_l/activation	glut_max3_l/activation	iliacus_l/activation	psoas_l/activation	quad_fem_l/activation	gem_l/activation	peri_l/activation	rect_fem_l/activation	vas_med_l/activation	vas_int_l/activation	vas_lat_l/activation	med_gas_l/activation	lat_gas_l/activation	soleus_l/activation	tib_post_l/activation	flex_dig_l/activation	flex_hal_l/activation	tib_ant_l/activation	per_brev_l/activation	per_long_l/activation	per_tert_l/activation	ext_dig_l/activation	ext_hal_l/activation	ercspn_l/activation	intobl_l/activation	extobl_l/activation	glut_med1_r/activation	glut_med2_r/activation	glut_med3_r/activation	glut_min1_r/activation	glut_min2_r/activation	glut_min3_r/activation	semimem_r/activation	semiten_r/activation	bifemlh_r/activation	bifemsh_r/activation	sar_r/activation	add_long_r/activation	add_brev_r/activation	add_mag1_r/activation	add_mag2_r/activation	add_mag3_r/activation	tfl_r/activation	pect_r/activation	grac_r/activation	glut_max1_r/activation	glut_max2_r/activation	glut_max3_r/activation	iliacus_r/activation	psoas_r/activation	quad_fem_r/activation	gem_r/activation	peri_r/activation	rect_fem_r/activation	vas_med_r/activation	vas_int_r/activation	vas_lat_r/activation	med_gas_r/activation	lat_gas_r/activation	soleus_r/activation	tib_post_r/activation	flex_dig_r/activation	flex_hal_r/activation	tib_ant_r/activation	per_brev_r/activation	per_long_r/activation	per_tert_r/activation	ext_dig_r/activation	ext_hal_r/activation	ercspn_r/activation	intobl_r/activation	extobl_r/activation	
          0.56320005	         -2.93017469	          2.06150386	         -5.05430031	          0.70400007	          0.91883122	          0.00295341	         28.94138174	          3.49817057	         -2.73275701	        -16.65353207	         -0.44468520	          6.51963403	         -9.24664383	         -7.00725038	          5.69244263	         -1.71937783	         -6.86790304	          5.48097572	          0.10433373	          5.00042062	          1.38197602	         16.09190001	         -2.26491974	         -0.38426937	          2.01454495	         -4.79239631	        -13.45967574	          7.08271559	          5.71646453	        -13.45115680	         17.09181815	         16.32214577	         32.97423577	         86.51662706	         86.51662706	          0.05938663	          0.05938663	          0.05000016	          0.05938670	          0.05938668	          0.05410697	          0.19612331	          0.09175043	          0.16964212	          0.08213075	          0.05000019	          0.16667386	          0.22774235	          0.24910552	          0.21474310	          0.10998939	          0.05000013	          0.05000721	          0.15230199	          0.05000128	          0.05224466	          0.16070458	          0.05000210	          0.05000034	          0.22493085	          0.29891853	          0.13754425	          0.05000016	          0.09705603	          0.09375726	          0.08605890	          0.06892491	          0.07184518	          0.06343722	          0.05000005	          0.05000034	          0.05000034	          0.46984462	          0.25181651	          0.17592931	          0.20942844	          0.49368371	          0.22120051	          0.05938668	          0.11591884	          0.09733179	          0.28036478	          0.09969268	          0.07491202	          0.29232952	          0.19123382	          0.11810703	          0.05000157	          0.05000032	          0.05000017	          0.05420379	          0.11510033	          0.08519696	          0.05530426	          0.05000128	          0.05000211	          0.05000057	          0.32041329	          0.08128998	          0.05001243	          0.05000123	          0.05000070	          0.05000071	          0.43625354	          0.67035364	          0.05000013	          0.05000051	          0.05939311	          0.25363820	          0.05000025	          0.05000026	          0.05000025	          0.28331895	          0.38264958	          0.34110692	          0.30152815	          0.29357795	          0.38028741	          0.05000004	          0.05938328	          0.08397173	          0.05000026	          0.05000006	          0.05000023	          0.05000002	          0.05000007	          0.05000052	
          0.57446405	         -2.92792080	          2.14974194	         -5.33626336	          0.72087813	          0.91799294	          0.00274864	         28.35446592	          3.87146354	         -2.48958943	        -16.54414598	         -0.73721584	          6.31244417	         -9.77394518	         -8.91250789	          5.08667684	         -2.26652885	         -7.20756647	          6.46329850	          0.03395591	          4.46513351	          1.03526788	         17.79390840	         -2.06566830	         -0.57432310	          2.08121839	         -5.67688707	        -13.45385219	          6.84334008	          5.47335020	        -13.45501441	         17.40279978	         16.00425135	         34.07796880	         86.51662706	         86.51662706	          0.05000001	          0.05000004	          0.08773916	          0.05000005	          0.05000006	          0.05000006	          0.16512407	          0.07724839	          0.14282848	          0.06914927	          0.05939496	          0.14032967	          0.31512871	          0.30807663	          0.19872860	          0.10887256	          0.05000031	          0.07606083	          0.14192541	          0.05000058	          0.09113078	          0.14336024	          0.05000022	          0.05981411	          0.55733736	          0.25167147	          0.11580408	          0.05939351	          0.08794071	          0.09624707	          0.07583207	          0.06798992	          0.07053541	          0.06265962	          0.05938672	          0.05001216	          0.05938607	          0.45736078	          0.25429757	          0.21970921	          0.17632643	          0.41565260	          0.18623759	          0.05000002	          0.09759670	          0.08194752	          0.23605035	          0.08393527	          0.06307147	          0.24612402	          0.16100744	          0.09943907	          0.05000324	          0.05000090	          0.05000129	          0.05000014	          0.09690773	          0.15566292	          0.05002419	          0.05938709	          0.05938557	          0.05938714	          0.26976887	          0.06844242	          0.05000247	          0.05001810	          0.05002134	          0.05935192	          0.36729929	          0.61464005	          0.05562588	          0.05937599	          0.05000565	          0.21354909	          0.14375211	          0.13974111	          0.13583885	          0.23853752	          0.32216796	          0.29900287	          0.25784657	          0.24717546	          0.32017982	          0.05000003	          0.05000009	          0.09583500	          0.05000011	          0.05000003	          0.05000018	          0.06121269	          0.06867798	          0.05938684	
          0.58572805	         -2.92106550	          2.24056300	         -5.58678008	          0.73806995	          0.91718513	          0.00256412	         27.65314253	          4.13047885	         -2.22070551	        -16.39279473	         -1.03158955	          6.09653071	        -10.39599418	        -10.88106685	          4.54347365	         -2.91908319	         -7.54733438	          7.41271308	         -0.15001345	          3.73745607	          0.78351425	         19.60646189	         -1.84432969	         -0.77474731	          2.13626539	         -6.58922337	        -13.45653538	          6.65398202	          5.14418375	        -13.45408032	         17.62363479	         15.73570056	         35.17147386	         86.51662706	         86.51662706	          0.23635232	          0.22932789	          0.24693963	          0.37789304	          0.26297545	          0.18459259	          0.13902461	          0.06503884	          0.12025304	          0.06837613	          0.05000761	          0.11814918	          0.26531945	          0.25938207	          0.16731768	          0.10634185	          0.05000073	          0.06403907	          0.11949286	          0.05001332	          0.10908007	          0.12070085	          0.05134991	          0.05036008	          0.46924455	          0.21189234	          0.20108752	          0.05000580	          0.07404091	          0.08103436	          0.06384615	          0.05724347	          0.05938664	          0.05275575	          0.05000016	          0.05000042	          0.05000055	          0.51394545	          0.35049715	          0.18498214	          0.31444700	          0.50803305	          0.15680110	          0.06032505	          0.12250318	          0.06899489	          0.32750479	          0.07066848	          0.05310246	          0.33009661	          0.13555870	          0.08372180	          0.05000145	          0.05000019	          0.05000014	          0.05000045	          0.08159092	          0.13105891	          0.05000038	          0.05000064	          0.05000082	          0.05000067	          0.28217087	          0.05797432	          0.05000124	          0.05000195	          0.05000100	          0.05000058	          0.30924399	          0.58037591	          0.05000018	          0.05000080	          0.05000087	          0.18655590	          0.12103079	          0.11765377	          0.11436829	          0.20083424	          0.27124605	          0.25174243	          0.21709137	          0.20810702	          0.26957229	          0.05000002	          0.07286764	          0.12486073	          0.05000016	          0.05000007	          0.05000018	          0.05488759	          0.05782273	          0.05000017	
          0.59699206	         -2.91150991	          2.32226198	         -5.80006329	          0.75538388	          0.91644210	          0.00235019	         26.90523227	          4.35069612	         -1.95613999	        -16.16549198	         -1.31673470	          5.89804761	        -10.94525251	        -12.94833914	          3.95296582	         -3.64936831	         -7.87790614	          8.34114990	         -0.02544024	          2.77223938	          0.55755730	         21.54988761	         -1.62248411	         -0.97206921	          2.18222791	         -7.48451754	        -13.45891262	          6.51463346	          4.76005749	        -13.45877874	         17.77769480	         15.49221248	         36.23842788	         86.51662706	         86.51662706	          0.33005674	          0.32871081	          0.35320705	          0.31816350	          0.22157428	          0.23271916	          0.11705042	          0.05732609	          0.10124590	          0.05756907	          0.05000103	          0.09947453	          0.22338306	          0.21838426	          0.14087188	          0.14148849	          0.05000057	          0.05391753	          0.10060611	          0.19683171	          0.16916870	          0.13787753	          0.05000009	          0.05000010	          0.39507572	          0.17840067	          0.16930474	          0.05000011	          0.09584337	          0.11280940	          0.07860525	          0.05000004	          0.05000014	          0.05000001	          0.05000013	          0.05000030	          0.05000032	          0.59030101	          0.34157676	          0.19215405	          0.46342042	          0.53503894	          0.27596184	          0.08432876	          0.10314032	          0.05808957	          0.28697064	          0.05949865	          0.05000025	          0.27792186	          0.11413234	          0.07048878	          0.05000178	          0.05000022	          0.05000021	          0.05000014	          0.06869484	          0.13079417	          0.07501598	          0.05005983	          0.05001808	          0.05001651	          0.23757143	          0.05932199	          0.05000130	          0.05000622	          0.05000390	          0.05000370	          0.26036486	          0.52411623	          0.05000084	          0.05000178	          0.05000024	          0.15706888	          0.12913985	          0.13144782	          0.11818584	          0.16909034	          0.22837286	          0.21195198	          0.18277790	          0.17521368	          0.22696372	          0.05653725	          0.06135055	          0.12950100	          0.05000040	          0.10636791	          0.05000044	          0.06619707	          0.05000001	          0.05000003	
